PathFileType	4	(X/Y/Z)	RKneeTrial12.trc
DataRate	CameraRate	NumFrames	NumMarkers	Units	OrigDataRate	OrigDataStartFrame	OrigNumFrames
100	100	4	33	m	100	62	851
Frame#	Time	L_Toe			Neck			R_Toe			R_Shoulder			L_Wrist			L_Shank_Lateral			L_Elbow			R_Shank_Lateral			L_Shoulder			R_Midfoot_Lateral			L_Midfoot_Superior			R_Midfoot_Superior			R_Heel			R_Thigh_Lateral			L_Heel			R_Patella			L_Midfoot_Lateral			R_Elbow			R_Wrist			R_Shank_Inferior			Sternum			R_Thigh_Inferior			L_Shank_Inferior			R_Shank_Superior			L_Thigh_Superior			R_Thigh_Superior			R_Asis			L_Asis			L_Shank_Superior			L_Patella			Sacral			L_Thigh_Lateral			L_Thigh_Inferior
		X1	Y1	Z1	X2	Y2	Z2	X3	Y3	Z3	X4	Y4	Z4	X5	Y5	Z5	X6	Y6	Z6	X7	Y7	Z7	X8	Y8	Z8	X9	Y9	Z9	X10	Y10	Z10	X11	Y11	Z11	X12	Y12	Z12	X13	Y13	Z13	X14	Y14	Z14	X15	Y15	Z15	X16	Y16	Z16	X17	Y17	Z17	X18	Y18	Z18	X19	Y19	Z19	X20	Y20	Z20	X21	Y21	Z21	X22	Y22	Z22	X23	Y23	Z23	X24	Y24	Z24	X25	Y25	Z25	X26	Y26	Z26	X27	Y27	Z27	X28	Y28	Z28	X29	Y29	Z29	X30	Y30	Z30	X31	Y31	Z31	X32	Y32	Z32	X33	Y33	Z33

62	   0.610	    0.65042149200000	    0.04412931600000	    0.36715302500000	    0.49126019500000	    1.48386355600000	    0.33443030900000	    0.34315262800000	    0.08486894900000	    0.63850420700000	    0.53279526200000	    1.46031081000000	    0.48071388300000	    0.51989208600000	    1.07002375100000	   -0.06294252600000	    0.41430940400000	    0.32340824800000	    0.29381521100000	    0.33462697200000	    1.15030032400000	    0.09790068900000	    0.42713174400000	    0.45755124500000	    0.64260626300000	    0.51222400300000	    1.43997051100000	    0.18923433500000	    0.18871040200000	    0.23278975400000	    0.67167522600000	    0.53240016500000	    0.09081447700000	    0.38803741700000	    0.29055710000000	    0.20704223700000	    0.62139719900000	    0.12880267300000	    0.29005952600000	    0.60751126200000	    0.54815976000000	    0.68556609100000	    0.59888782000000	    0.36398631100000	    0.03365042900000	    0.43769737000000	    0.61740021300000	    0.48510557000000	    0.54754970500000	    0.43561900500000	    0.02749631100000	    0.36528972200000	    0.53689022900000	    1.15635150100000	    0.65842287600000	    0.67396545500000	    1.22648685700000	    0.45874376400000	    0.35847078100000	    0.31940650000000	    0.60767516800000	    0.61684852900000	    1.37607419000000	    0.33702545800000	    0.62961936700000	    0.62191780200000	    0.53370485500000	    0.49094144700000	    0.23005052400000	    0.35896476500000	    0.50702629400000	    0.41032061800000	    0.58668419700000	    0.59697582800000	    0.72141794700000	    0.26479211300000	    0.62539854900000	    0.73637168800000	    0.53023210300000	    0.57176222600000	    0.98989753200000	    0.50733195500000	    0.56819625000000	    0.95103715500000	    0.24632706800000	    0.50962080000000	    0.38060902800000	    0.31972833600000	    0.55608961600000	    0.48926406400000	    0.32211707800000	    0.39989497800000	    1.00775694000000	    0.38076744500000	    0.48850721500000	    0.65188137900000	    0.24079685900000	    0.57157729200000	    0.59918715600000	    0.29203707800000
63	   0.620	    0.65041943000000	    0.04414269400000	    0.36715624100000	    0.49139916100000	    1.48385536200000	    0.33447259900000	    0.33463603000000	    0.08935627500000	    0.63939959100000	    0.53294676500000	    1.46037560300000	    0.48075574800000	    0.52008618700000	    1.06998573500000	   -0.06291023800000	    0.41428699800000	    0.32348278700000	    0.29388817900000	    0.33481417100000	    1.15022802300000	    0.09795327100000	    0.42657980600000	    0.46015635500000	    0.64288987500000	    0.51235492400000	    1.43991871500000	    0.18930133000000	    0.18344868000000	    0.24068683200000	    0.67222369100000	    0.53240073800000	    0.09082194500000	    0.38802994600000	    0.28477406100000	    0.21264790700000	    0.62204970300000	    0.12484156100000	    0.29910894400000	    0.60792046400000	    0.54845642200000	    0.68552090700000	    0.59906448200000	    0.36398502200000	    0.03364422200000	    0.43770525400000	    0.61744408500000	    0.48478739500000	    0.54774206900000	    0.43562333500000	    0.02749996500000	    0.36528850700000	    0.53707811700000	    1.15648459000000	    0.65859492700000	    0.67414054900000	    1.22654917600000	    0.45888170300000	    0.35506962500000	    0.32351014200000	    0.60812154000000	    0.61700060200000	    1.37608619300000	    0.33710207800000	    0.62994214900000	    0.62186622100000	    0.53387725700000	    0.49092969200000	    0.23006384900000	    0.35895191500000	    0.50547547900000	    0.41115883300000	    0.58702823000000	    0.59705996100000	    0.72143831100000	    0.26494952100000	    0.62568862200000	    0.73629150400000	    0.53033510700000	    0.57200921400000	    0.98986631300000	    0.50751545500000	    0.56836445900000	    0.95106322500000	    0.24651018300000	    0.50963443100000	    0.38063758600000	    0.31975074800000	    0.55615341700000	    0.48926301800000	    0.32216303700000	    0.40011490900000	    1.00779083800000	    0.38103397500000	    0.48862600600000	    0.65195093600000	    0.24090477400000	    0.57164702600000	    0.59921059200000	    0.29213987500000
64	   0.630	    0.65041927800000	    0.04414848000000	    0.36716017800000	    0.49153627500000	    1.48384918700000	    0.33452896300000	    0.32625128200000	    0.09405682500000	    0.64029505200000	    0.53309291700000	    1.46043914900000	    0.48081141900000	    0.52027547000000	    1.06995929100000	   -0.06285640300000	    0.41426368800000	    0.32355677700000	    0.29396527400000	    0.33500305600000	    1.15015590700000	    0.09803835800000	    0.42610569800000	    0.46279549300000	    0.64319403200000	    0.51248544300000	    1.43987388500000	    0.18937994800000	    0.17837917500000	    0.24871585000000	    0.67275769600000	    0.53240440000000	    0.09082679000000	    0.38802598500000	    0.27913557900000	    0.21839734700000	    0.62269318800000	    0.12109527700000	    0.30825963800000	    0.60830737900000	    0.54876170900000	    0.68549443700000	    0.59927938800000	    0.36398478200000	    0.03364041500000	    0.43771316300000	    0.61752199100000	    0.48449741400000	    0.54798892300000	    0.43562831600000	    0.02750456400000	    0.36528787800000	    0.53725437500000	    1.15660977600000	    0.65876913300000	    0.67431267400000	    1.22661208100000	    0.45903055100000	    0.35177536700000	    0.32771829100000	    0.60857212100000	    0.61715270900000	    1.37610223500000	    0.33719203000000	    0.63028738400000	    0.62183282800000	    0.53409676300000	    0.49092065400000	    0.23007769200000	    0.35894525900000	    0.50397479200000	    0.41205741500000	    0.58741297700000	    0.59714186400000	    0.72145880100000	    0.26511379200000	    0.62598514100000	    0.73622669200000	    0.53047524500000	    0.57225372900000	    0.98984087400000	    0.50770416600000	    0.56853015400000	    0.95108843500000	    0.24669837900000	    0.50964908500000	    0.38066727500000	    0.31978115100000	    0.55621172200000	    0.48926269200000	    0.32221750100000	    0.40033336600000	    1.00782803900000	    0.38130276400000	    0.48874150200000	    0.65201810700000	    0.24101828700000	    0.57171357400000	    0.59923471500000	    0.29224952700000
65	   0.640	    0.65042115100000	    0.04414657000000	    0.36716477900000	    0.49167140200000	    1.48384478300000	    0.33459998800000	    0.31800865700000	    0.09896344100000	    0.64118794700000	    0.53323456700000	    1.46050064800000	    0.48088140700000	    0.52045885000000	    1.06994570200000	   -0.06278285600000	    0.41424046400000	    0.32362949400000	    0.29404626100000	    0.33519278800000	    1.15008410500000	    0.09815506200000	    0.42570825500000	    0.46546519100000	    0.64351745400000	    0.51261474000000	    1.43983588900000	    0.18947073500000	    0.17350690200000	    0.25686583800000	    0.67327427100000	    0.53241114700000	    0.09082894600000	    0.38802559100000	    0.27364862500000	    0.22428234200000	    0.62332555500000	    0.11756767000000	    0.31749933100000	    0.60866898700000	    0.54907451800000	    0.68548649000000	    0.59953354100000	    0.36398569700000	    0.03363925000000	    0.43772091100000	    0.61763365300000	    0.48423459700000	    0.54829190300000	    0.43563389300000	    0.02751010700000	    0.36528780900000	    0.53742035700000	    1.15672598600000	    0.65894503400000	    0.67448218900000	    1.22667483900000	    0.45918946400000	    0.34859097900000	    0.33202401000000	    0.60902461400000	    0.61730462000000	    1.37612185400000	    0.33729515900000	    0.63065553100000	    0.62181749000000	    0.53436611500000	    0.49091509100000	    0.23009195700000	    0.35894551400000	    0.50252697000000	    0.41301600700000	    0.58783887800000	    0.59722200500000	    0.72147896600000	    0.26528122400000	    0.62628805400000	    0.73617722100000	    0.53065527300000	    0.57249543200000	    0.98982052500000	    0.50789783100000	    0.56869240300000	    0.95111254100000	    0.24689115900000	    0.50966548600000	    0.38069788300000	    0.31981994500000	    0.55626461500000	    0.48926314200000	    0.32228052400000	    0.40054979800000	    1.00786856700000	    0.38157328200000	    0.48885125100000	    0.65208217100000	    0.24113807200000	    0.57177732700000	    0.59925898200000	    0.29236395200000
